# Blender 5.2.0 LTS
# www.blender.org
mtllib grass.mtl
o Plane
v -0.006050 0.165173 -0.000000
v 0.006050 0.165173 -0.000000
v 0.000000 0.218303 0.000000
v -0.007620 0.133765 -0.000000
v 0.007620 0.133765 -0.000000
v -0.008734 0.099386 -0.000000
v 0.008734 0.099386 -0.000000
v -0.009730 0.068116 -0.000000
v 0.009730 0.068116 -0.000000
v -0.009590 0.030989 -0.000000
v 0.009590 0.030989 -0.000000
v -0.009889 0.000028 -0.000000
v 0.009889 0.000028 -0.000000
vn -0.0000 -0.0000 1.0000
vt 0.179302 0.743487
vt 0.820812 0.743411
vt 0.500097 1.000000
vt 0.100129 0.595965
vt 0.899941 0.595916
vt 0.046728 0.437891
vt 0.953306 0.437889
vt 0.000000 0.297100
vt 1.000000 0.297152
vt 0.012976 0.133525
vt 0.987035 0.133637
vt 0.002596 0.000000
vt 0.997409 0.000165
s 0
f 1/1/1 2/2/1 3/3/1
f 2/2/1 1/1/1 4/4/1 5/5/1
f 5/5/1 4/4/1 6/6/1 7/7/1
f 7/7/1 6/6/1 8/8/1 9/9/1
f 9/9/1 8/8/1 10/10/1 11/11/1
f 11/11/1 10/10/1 12/12/1 13/13/1
